Coordinates
version=1
nRows=7
nColumns=40
inDegrees=yes

Units are S.I. units (second, meters, Newtons, ...)
Angles are in degrees.

endheader
time	pelvis_tilt	pelvis_list	pelvis_rotation	pelvis_tx	pelvis_ty	pelvis_tz	hip_flexion_r	hip_adduction_r	hip_rotation_r	knee_angle_r	knee_angle_r_beta	ankle_angle_r	subtalar_angle_r	mtp_angle_r	hip_flexion_l	hip_adduction_l	hip_rotation_l	knee_angle_l	knee_angle_l_beta	ankle_angle_l	subtalar_angle_l	mtp_angle_l	lumbar_extension	lumbar_bending	lumbar_rotation	arm_flex_r	arm_add_r	arm_rot_r	elbow_flex_r	pro_sup_r	wrist_flex_r	wrist_dev_r	arm_flex_l	arm_add_l	arm_rot_l	elbow_flex_l	pro_sup_l	wrist_flex_l	wrist_dev_l
     36.95314286	     -2.79890955	     -4.51397824	      3.92178264	      1.06258489	      0.92986226	      0.47358175	      8.23729227	      2.79716983	    -16.29085152	     16.55548297	     16.55548297	     12.89827197	      0.28559883	     -4.29042300	     33.18232243	    -14.26288165	     -0.19455523	     41.19711608	     41.19711608	      7.84008269	    -17.91412202	     12.10301252	    -10.40319543	      5.15859596	      3.28248610	     20.34651215	    -18.94823657	      0.61673487	     64.90192336	     44.90413247	      0.00000000	      0.00000000	      3.75996008	     -8.35237620	    -13.56964520	     33.40056293	     46.96853905	      0.00000000	      0.00000000
     36.96628571	     -3.01212199	     -4.50270422	      4.15197055	      1.06127358	      0.92960019	      0.47278535	      7.96587519	      2.80557201	    -16.37542416	     16.13861965	     16.13861965	     12.97953118	      0.28086831	     -4.41438452	     33.21968085	    -13.84354805	     -0.32204339	     37.56638819	     37.56638819	      7.86780878	    -17.37721284	     12.31666981	    -10.36392815	      5.23954253	      3.24528074	     21.56305400	    -18.91814349	      0.46723447	     66.20223621	     44.87588153	      0.00000000	      0.00000000	      2.96579051	     -8.16595776	    -13.46345645	     32.25809947	     46.93146430	      0.00000000	      0.00000000
     36.97942857	     -3.15877051	     -4.59832299	      4.40402335	      1.06014000	      0.92925636	      0.47178948	      7.53559193	      2.92937786	    -16.57601342	     15.57256673	     15.57256673	     12.97382151	      0.40640216	     -4.76501516	     33.17744886	    -13.47332420	     -0.26064129	     34.05524796	     34.05524796	      7.71403459	    -16.68936879	     11.78271253	    -10.37221388	      5.49956697	      3.17104291	     22.68494702	    -18.89541053	      0.34497169	     68.24838568	     44.82882396	      0.00000000	      0.00000000	      2.43481995	     -7.95980956	    -13.15609918	     30.39866262	     46.85857886	      0.00000000	      0.00000000
     36.99257143	     -3.45575712	     -4.60499631	      4.56476228	      1.05894155	      0.92877984	      0.47079528	      7.37577668	      2.92738321	    -16.63170894	     15.21584162	     15.21584162	     13.06901531	      0.42629097	     -4.88722553	     33.21737606	    -13.05169870	     -0.38113888	     30.70259846	     30.70259846	      7.81615060	    -15.48118746	     11.91680896	    -10.18844957	      5.54694655	      3.38320721	     23.67652135	    -18.95398007	      0.17768149	     69.21738880	     44.81076443	      0.00000000	      0.00000000	      1.67281585	     -7.72846072	    -13.03214641	     29.68809431	     46.82168803	      0.00000000	      0.00000000
     37.00571429	     -3.72870579	     -4.82087573	      4.75804638	      1.05776556	      0.92814321	      0.46965391	      7.24174564	      3.12445752	    -16.78885642	     14.94034669	     14.94034669	     13.19435592	      0.47420704	     -5.00407451	     33.39001169	    -12.80083032	     -0.27741919	     27.79950602	     27.79950602	      7.92365296	    -14.15672626	     12.09946147	    -10.01634763	      5.89720889	      3.57468844	     24.80244626	    -19.06698063	     -0.02382788	     70.10455438	     44.79547090	      0.00000000	      0.00000000	      0.85383910	     -7.45147075	    -12.93119292	     29.10981846	     46.78943236	      0.00000000	      0.00000000
     37.01885714	     -3.69517542	     -4.80926317	      4.91366015	      1.05710858	      0.92825553	      0.46845927	      6.36276666	      3.19695021	    -17.00824798	     13.94688764	     13.94688764	     13.06885052	      0.98994298	     -5.34052248	     32.96726935	    -12.46762253	     -0.69746442	     24.93777043	     24.93777043	      7.86607540	    -12.27115347	     11.47792461	    -10.24963250	      5.92696178	      3.28768462	     25.62679873	    -18.52542018	     -0.16181812	     72.52164239	     44.73656921	      0.00000000	      0.00000000	      0.09121127	     -7.43031382	    -12.40908434	     27.75499635	     46.68099051	      0.00000000	      0.00000000
     37.03200000	     -3.84750553	     -4.85608758	      5.03526873	      1.05639258	      0.92793318	      0.46716503	      5.89706135	      3.25805256	    -17.12972304	     13.36867135	     13.36867135	     13.10161260	      1.26685209	     -5.62669341	     32.86045921	    -12.14301220	     -0.99337514	     22.62344941	     22.62344941	      7.84691602	    -10.62197720	     11.30566593	    -10.22984037	      6.00816695	      3.45210077	     26.34565039	    -18.42122298	     -0.39779850	     73.93402917	     44.71162983	      0.00000000	      0.00000000	     -0.66323578	     -7.27731136	    -12.03443972	     27.07768233	     46.59692990	      0.00000000	      0.00000000
